<svg xmlns="http://www.w3.org/2000/svg" width="1000" height="1000" viewBox="0 0 100 100">
<title>Ultra Miami 2026 — generated ground plate</title>
<desc>Abstract site plate generated from this festival's own stage and amenity coordinates. Not the official patron map; no festival artwork is reproduced.</desc>
<defs>
  <radialGradient id="glow"><stop offset="0" stop-color="#fff" stop-opacity=".30"/><stop offset="1" stop-color="#fff" stop-opacity="0"/></radialGradient>
  <filter id="soft" x="-30%" y="-30%" width="160%" height="160%"><feGaussianBlur stdDeviation="1.6"/></filter>
</defs>
<rect width="100" height="100" fill="#0d2b3e"/>
<rect x="3" y="3" width="72" height="94" rx="4" fill="#14435c"/>
<rect x="75" y="0" width="25" height="100" fill="#0a2233"/>
<path d="M4 8 Q 26.3 5.8 46.5 8 T 73 9.4" stroke="#1d5a78" stroke-opacity=".30" stroke-width=".35" fill="none"/>
<path d="M4 15 Q 26.3 12.8 46.5 15 T 73 16.4" stroke="#1d5a78" stroke-opacity=".30" stroke-width=".35" fill="none"/>
<path d="M4 22 Q 26.3 19.8 46.5 22 T 73 23.4" stroke="#1d5a78" stroke-opacity=".30" stroke-width=".35" fill="none"/>
<path d="M4 29 Q 26.3 26.8 46.5 29 T 73 30.4" stroke="#1d5a78" stroke-opacity=".30" stroke-width=".35" fill="none"/>
<path d="M4 36 Q 26.3 33.8 46.5 36 T 73 37.4" stroke="#1d5a78" stroke-opacity=".30" stroke-width=".35" fill="none"/>
<path d="M4 43 Q 26.3 40.8 46.5 43 T 73 44.4" stroke="#1d5a78" stroke-opacity=".30" stroke-width=".35" fill="none"/>
<path d="M4 50 Q 26.3 47.8 46.5 50 T 73 51.4" stroke="#1d5a78" stroke-opacity=".30" stroke-width=".35" fill="none"/>
<path d="M4 57 Q 26.3 54.8 46.5 57 T 73 58.4" stroke="#1d5a78" stroke-opacity=".30" stroke-width=".35" fill="none"/>
<path d="M4 64 Q 26.3 61.8 46.5 64 T 73 65.4" stroke="#1d5a78" stroke-opacity=".30" stroke-width=".35" fill="none"/>
<path d="M4 71 Q 26.3 68.8 46.5 71 T 73 72.4" stroke="#1d5a78" stroke-opacity=".30" stroke-width=".35" fill="none"/>
<path d="M4 78 Q 26.3 75.8 46.5 78 T 73 79.4" stroke="#1d5a78" stroke-opacity=".30" stroke-width=".35" fill="none"/>
<path d="M4 85 Q 26.3 82.8 46.5 85 T 73 86.4" stroke="#1d5a78" stroke-opacity=".30" stroke-width=".35" fill="none"/>
<path d="M4 92 Q 26.3 89.8 46.5 92 T 73 93.4" stroke="#1d5a78" stroke-opacity=".30" stroke-width=".35" fill="none"/>
<path d="M 46.7 13.8 L 49 35 L 20 25 L 25 58.8 L 33.3 83.7 L 63.3 90 L 75 56.3" stroke="#f7ede0" stroke-opacity=".16" stroke-width="1.6" stroke-linecap="round" stroke-linejoin="round" fill="none"/>
<line x1="33.3" y1="37.5" x2="49" y2="35" stroke="#f7ede0" stroke-opacity=".07" stroke-width=".6"/>
<line x1="43.3" y1="75" x2="33.3" y2="83.7" stroke="#f7ede0" stroke-opacity=".07" stroke-width=".6"/>
<line x1="23.3" y1="52.5" x2="25" y2="58.8" stroke="#f7ede0" stroke-opacity=".07" stroke-width=".6"/>
<line x1="50" y1="81.2" x2="63.3" y2="90" stroke="#f7ede0" stroke-opacity=".07" stroke-width=".6"/>
<line x1="40" y1="27.5" x2="49" y2="35" stroke="#f7ede0" stroke-opacity=".07" stroke-width=".6"/>
<line x1="30" y1="68.8" x2="25" y2="58.8" stroke="#f7ede0" stroke-opacity=".07" stroke-width=".6"/>
<line x1="36.7" y1="47.5" x2="25" y2="58.8" stroke="#f7ede0" stroke-opacity=".07" stroke-width=".6"/>
<line x1="16.7" y1="20" x2="20" y2="25" stroke="#f7ede0" stroke-opacity=".07" stroke-width=".6"/>
<line x1="26.7" y1="23.7" x2="20" y2="25" stroke="#f7ede0" stroke-opacity=".07" stroke-width=".6"/>
<line x1="44" y1="53.2" x2="49" y2="35" stroke="#f7ede0" stroke-opacity=".07" stroke-width=".6"/>
<circle cx="46.7" cy="13.8" r="12.6" fill="#38bdf8" fill-opacity=".17" filter="url(#soft)"/>
<circle cx="46.7" cy="13.8" r="5.7" fill="url(#glow)"/>
<circle cx="33.3" cy="83.7" r="10.4" fill="#a855f7" fill-opacity=".17" filter="url(#soft)"/>
<circle cx="33.3" cy="83.7" r="4.7" fill="url(#glow)"/>
<circle cx="63.3" cy="90" r="10.9" fill="#f97316" fill-opacity=".17" filter="url(#soft)"/>
<circle cx="63.3" cy="90" r="4.9" fill="url(#glow)"/>
<circle cx="75" cy="56.3" r="9.5" fill="#14b8a6" fill-opacity=".17" filter="url(#soft)"/>
<circle cx="75" cy="56.3" r="4.3" fill="url(#glow)"/>
<circle cx="49" cy="35" r="10" fill="#ec4899" fill-opacity=".17" filter="url(#soft)"/>
<circle cx="49" cy="35" r="4.5" fill="url(#glow)"/>
<circle cx="20" cy="25" r="9.3" fill="#facc15" fill-opacity=".17" filter="url(#soft)"/>
<circle cx="20" cy="25" r="4.2" fill="url(#glow)"/>
<circle cx="25" cy="58.8" r="8.8" fill="#22c55e" fill-opacity=".17" filter="url(#soft)"/>
<circle cx="25" cy="58.8" r="4" fill="url(#glow)"/>
</svg>
